# xmcd CD database file
#
# Track frame offsets:
#	150
#	14047
#	24535
#	33100
#	44575
#	59417
#	74580
#	92240
#	108680
#	128112
#	140195
#	159565
#
# Disc length: 2308 seconds
#
# Revision: 0
# Processed by: cddbd v1.5.2PL0 Copyright (c) Steve Scherf et al.
# Submitted via: CDex 1.51
#
DISCID=b509020c
DTITLE=Country Wranglers - Kintore Gospel
DYEAR=2004
DGENRE=Country
TTITLE0=Ngayulu Iwarr Kuyakuyangka Ankupayi (Super Time)
TTITLE1=Walk With Thee
TTITLE2=Royal Telephone
TTITLE3=Ngyulu Iriti Nginuni (Young Brother in the Well)
TTITLE4=Walk of Life
TTITLE5=I Saw the Light
TTITLE6=Some Way Some Day
TTITLE7=Tjitjunya Mamaku Katja (Son of God)
TTITLE8=Lord I Want To Walk With Thee
TTITLE9=Just A Wondering Child
TTITLE10=Lights That Shine From Heaven
TTITLE11=Tjitjunya Mukulya (Jesus Has The Power)
EXTD=YEAR: 2004
EXTT0=
EXTT1=
EXTT2=
EXTT3=
EXTT4=
EXTT5=
EXTT6=
EXTT7=
EXTT8=
EXTT9=
EXTT10=
EXTT11=
PLAYORDER=
